<?xml version="1.0" encoding="UTF-8" standalone="no"?>
<!DOCTYPE svg PUBLIC "-//W3C//DTD SVG 1.1//EN" "http://www.w3.org/Graphics/SVG/1.1/DTD/svg11.dtd">
<svg width="100%" height="100%" viewBox="0 0 208 250" version="1.1" xmlns="http://www.w3.org/2000/svg" xmlns:xlink="http://www.w3.org/1999/xlink" xml:space="preserve" xmlns:serif="http://www.serif.com/" style="fill-rule:evenodd;clip-rule:evenodd;stroke-linejoin:round;stroke-miterlimit:2;">
    <g transform="matrix(1,0,0,1,-3362.442578,-3097.151925)">
        <g transform="matrix(1,0,0,1,2026.310043,2682.085135)">
            <g transform="matrix(14.235811,-24.657149,-24.909051,-14.381247,1502.488732,511.975135)">
                <path d="M-2.138,-2.138C-5.024,-2.138 -6.902,0.321 -6.902,2.138C-6.507,1.519 -4.52,0.505 -2.138,0.505C0.244,0.505 2.226,1.415 2.626,2.138C2.626,0.321 0.748,-2.138 -2.138,-2.138" style="fill:rgb(0,166,255);fill-rule:nonzero;"/>
            </g>
            <g transform="matrix(8.381048,-8.381048,8.381048,8.381048,1419.917873,508.36619)">
                <path d="M0,-9.504C-0.094,-9.504 -0.187,-9.496 -0.279,-9.481C-0.464,-9.451 -0.599,-9.291 -0.599,-9.104C-0.602,-7.704 -0.602,-1.737 -0.602,-1.737C-0.602,-0.778 0.176,0 1.135,0C1.229,-0 1.322,-0.008 1.414,-0.023C1.599,-0.053 1.734,-0.213 1.734,-0.4C1.737,-1.8 1.737,-7.767 1.737,-7.767C1.737,-8.727 0.959,-9.504 0,-9.504" style="fill:rgb(255,126,0);fill-rule:nonzero;"/>
            </g>
            <g transform="matrix(-8.381048,-8.381048,8.381048,-8.381048,1429.430363,428.711137)">
                <path d="M0,-9.504C-0.094,-9.504 -0.187,-9.496 -0.279,-9.481C-0.464,-9.451 -0.599,-9.291 -0.599,-9.104C-0.602,-7.704 -0.602,-1.737 -0.602,-1.737C-0.602,-0.778 0.176,0 1.135,0C1.229,0 1.322,-0.008 1.414,-0.023C1.599,-0.053 1.734,-0.213 1.734,-0.4C1.737,-1.8 1.737,-7.767 1.737,-7.767C1.737,-8.727 0.959,-9.504 0,-9.504" style="fill:rgb(255,126,0);fill-rule:nonzero;"/>
            </g>
        </g>
    </g>
</svg>
